<svg xmlns="http://www.w3.org/2000/svg" data-name="Calque 1" viewBox=".004 -.001 367.977 184.001"><path fill="#a7aff2" d="M228.93,48.85a8,8,0,0,0-4.4-5l-55.2-24.5A16,16,0,0,0,149.64,25L49.41,171.5A8,8,0,0,0,56,184h48a8,8,0,0,0,6.66-3.56l44.76-67.14,25.42,7.27a8,8,0,0,0,9-3.47l38.24-61.68A8,8,0,0,0,228.93,48.85Z" transform="translate(-48.02)"/><path fill="#c5c9f7" d="M414.54,171.39L319.71,37a16.21,16.21,0,0,0-5.92-5.1L251.58,0.85a8,8,0,0,0-10.4,2.95L176.25,108.67a8,8,0,0,0,4.6,11.9L203.5,127l46.4,54.17A8,8,0,0,0,256,184H408A8,8,0,0,0,414.54,171.39Z" transform="translate(-48.02)"/><path fill="#e1e4fb" d="m262.08 170.8-46.4-54.17a16 16 0 0 0-7.76-5L159.85 97.92a16 16 0 0 0-17.71 6.51l-44.8 67.14A8 8 0 0 0 104 184H256A8 8 0 0 0 262.08 170.8ZM312 152a8 8 0 0 1-6.4-3.2l-24-32a8 8 0 0 1-.8-8.37l5.79-11.58-21-28a8 8 0 0 1 12.8-9.6l24 32a8 8 0 0 1 .8 8.37l-5.83 11.62 21 28A8 8 0 0 1 312 152Z" transform="translate(-48.02)"/></svg>